<mxfile host="drawio-plugin" modified="2021-03-27T01:36:49.842Z" agent="5.0 (Macintosh; Intel Mac OS X 10_16_0) AppleWebKit/537.36 (KHTML, like Gecko) Chrome/84.0.4147.105 Safari/537.36" version="13.7.9" etag="uA1wZEMpmfB-CXYSFQcp" type="embed"><diagram id="rjR9wzhXq8Hpp7HeJRx-" name="Page-1"><mxGraphModel dx="925" dy="605" grid="1" gridSize="10" guides="1" tooltips="1" connect="1" arrows="1" fold="1" page="1" pageScale="1" pageWidth="850" pageHeight="1100" math="0" shadow="0"><root><mxCell id="0"/><mxCell id="1" parent="0"/><mxCell id="2" value="User" style="ellipse;whiteSpace=wrap;html=1;" vertex="1" parent="1"><mxGeometry x="100" y="99" width="120" height="80" as="geometry"/></mxCell><mxCell id="27" style="edgeStyle=orthogonalEdgeStyle;curved=1;rounded=0;orthogonalLoop=1;jettySize=auto;html=1;entryX=1;entryY=0.5;entryDx=0;entryDy=0;" edge="1" parent="1" source="3" target="2"><mxGeometry relative="1" as="geometry"><Array as="points"><mxPoint x="250" y="200"/><mxPoint x="250" y="139"/></Array></mxGeometry></mxCell><mxCell id="28" style="edgeStyle=orthogonalEdgeStyle;curved=1;rounded=0;orthogonalLoop=1;jettySize=auto;html=1;entryX=1;entryY=0.5;entryDx=0;entryDy=0;" edge="1" parent="1" source="3" target="4"><mxGeometry relative="1" as="geometry"/></mxCell><mxCell id="29" style="edgeStyle=orthogonalEdgeStyle;curved=1;rounded=0;orthogonalLoop=1;jettySize=auto;html=1;entryX=1;entryY=0.5;entryDx=0;entryDy=0;" edge="1" parent="1" source="3" target="5"><mxGeometry relative="1" as="geometry"><Array as="points"><mxPoint x="250" y="260"/><mxPoint x="250" y="320"/></Array></mxGeometry></mxCell><mxCell id="3" value="WebFlux receiver&lt;br&gt;users listens to Flux events" style="rounded=0;whiteSpace=wrap;html=1;" vertex="1" parent="1"><mxGeometry x="280" y="60" width="120" height="340" as="geometry"/></mxCell><mxCell id="4" value="User" style="ellipse;whiteSpace=wrap;html=1;" vertex="1" parent="1"><mxGeometry x="100" y="190" width="120" height="80" as="geometry"/></mxCell><mxCell id="5" value="User" style="ellipse;whiteSpace=wrap;html=1;" vertex="1" parent="1"><mxGeometry x="100" y="280" width="120" height="80" as="geometry"/></mxCell><mxCell id="26" style="edgeStyle=orthogonalEdgeStyle;curved=1;rounded=0;orthogonalLoop=1;jettySize=auto;html=1;entryX=1.025;entryY=0.526;entryDx=0;entryDy=0;entryPerimeter=0;" edge="1" parent="1" source="12" target="3"><mxGeometry relative="1" as="geometry"/></mxCell><mxCell id="12" value="Broker" style="ellipse;whiteSpace=wrap;html=1;" vertex="1" parent="1"><mxGeometry x="550" y="310" width="120" height="140" as="geometry"/></mxCell><mxCell id="18" style="edgeStyle=orthogonalEdgeStyle;curved=1;rounded=0;orthogonalLoop=1;jettySize=auto;html=1;entryX=0.008;entryY=0.671;entryDx=0;entryDy=0;entryPerimeter=0;" edge="1" parent="1" source="15" target="12"><mxGeometry relative="1" as="geometry"/></mxCell><mxCell id="15" value="API for sending notifications" style="rounded=0;whiteSpace=wrap;html=1;" vertex="1" parent="1"><mxGeometry x="280" y="430" width="120" height="350" as="geometry"/></mxCell><mxCell id="20" value="" style="edgeStyle=orthogonalEdgeStyle;curved=1;rounded=0;orthogonalLoop=1;jettySize=auto;html=1;" edge="1" parent="1" source="19" target="15"><mxGeometry relative="1" as="geometry"><Array as="points"><mxPoint x="250" y="500"/><mxPoint x="250" y="570"/></Array></mxGeometry></mxCell><mxCell id="19" value="Notification sernder client" style="ellipse;whiteSpace=wrap;html=1;" vertex="1" parent="1"><mxGeometry x="100" y="460" width="120" height="80" as="geometry"/></mxCell><mxCell id="24" value="" style="edgeStyle=orthogonalEdgeStyle;curved=1;rounded=0;orthogonalLoop=1;jettySize=auto;html=1;" edge="1" parent="1" source="22" target="15"><mxGeometry relative="1" as="geometry"/></mxCell><mxCell id="22" value="Notification sernder client" style="ellipse;whiteSpace=wrap;html=1;" vertex="1" parent="1"><mxGeometry x="100" y="565" width="120" height="80" as="geometry"/></mxCell><mxCell id="25" value="" style="edgeStyle=orthogonalEdgeStyle;curved=1;rounded=0;orthogonalLoop=1;jettySize=auto;html=1;" edge="1" parent="1" source="23" target="15"><mxGeometry relative="1" as="geometry"><Array as="points"><mxPoint x="250" y="710"/><mxPoint x="250" y="650"/></Array></mxGeometry></mxCell><mxCell id="23" value="Notification sernder client" style="ellipse;whiteSpace=wrap;html=1;" vertex="1" parent="1"><mxGeometry x="100" y="670" width="120" height="80" as="geometry"/></mxCell></root></mxGraphModel></diagram></mxfile>